/vscmnt/brussel_pixiu_data/_data_brussel/112/vsc11236/PredSimResults/SUBJ06opt3D/trackIG/worker_09.mot
version=1
nRows=5
nColumns=50
inDegrees=yes
endheader
                time	         pelvis_tilt	         pelvis_list	     pelvis_rotation	           pelvis_tx	           pelvis_ty	           pelvis_tz	       hip_flexion_r	     hip_adduction_r	      hip_rotation_r	        knee_angle_r	       ankle_angle_r	         mtp_angle_r	       hip_flexion_l	     hip_adduction_l	      hip_rotation_l	        knee_angle_l	       ankle_angle_l	         mtp_angle_l	    lumbar_extension	      lumbar_bending	     lumbar_rotation	 ercspn_r/activation	 intobl_r/activation	 extobl_r/activation	    abd_r/activation	    add_r/activation	hamstrings_r/activation	bifemsh_r/activation	glut_max_r/activation	iliopsoas_r/activation	rect_fem_r/activation	  vasti_r/activation	gastroc_r/activation	 soleus_r/activation	tib_ant_r/activation	 ercspn_l/activation	 intobl_l/activation	 extobl_l/activation	    abd_l/activation	    add_l/activation	hamstrings_l/activation	bifemsh_l/activation	glut_max_l/activation	iliopsoas_l/activation	rect_fem_l/activation	  vasti_l/activation	gastroc_l/activation	 soleus_l/activation	tib_ant_l/activation	
          1.09493810	         -7.17891945	         -1.45921949	          6.41584470	          1.53291334	          0.91921348	         -0.01021342	         34.47869773	         -1.13170414	         -8.71989838	         -7.14117894	          1.42206489	          0.26161043	        -12.20707035	         -1.27812253	         -3.21494804	        -10.13416990	          7.16390994	         36.40368877	         -6.42249668	          0.78288984	         -8.77042207	          0.19220672	          0.14915826	          0.00999999	          0.00999999	          0.38785757	          0.15604928	          0.18850102	          0.03907388	          0.14613605	          0.00999999	          0.00999999	          0.01653452	          0.01398280	          0.58786806	          0.19412298	          0.00999999	          0.00999999	          0.06244839	          0.00999999	          0.01532148	          0.26407721	          0.01653452	          0.76648023	          0.01182489	          0.00999999	          0.24455784	          0.38570341	          0.02733907	
          1.10588748	         -7.20871877	         -1.49913242	          6.47396731	          1.55124814	          0.91738909	         -0.00980050	         34.68328393	         -1.01312514	         -8.43714104	         -9.43949466	          1.09087230	          0.22078932	        -12.53830667	         -1.50880499	         -3.56526501	        -11.38461886	          5.87133343	         38.59583301	         -6.13671281	          1.17134453	         -9.20311372	          0.16254410	          0.12613917	          0.00999999	          0.01708366	          0.32800081	          0.14510670	          0.15941029	          0.15931512	          0.12358336	          0.00999999	          0.00999999	          0.01398281	          0.01182489	          0.64763260	          0.21206313	          0.00999999	          0.00999999	          0.05281094	          0.01182489	          0.02748609	          0.22647871	          0.01398280	          0.71335956	          0.00999999	          0.00999999	          0.20681605	          0.35367583	          0.02311992	
          1.11683686	         -7.21577899	         -1.58200518	          6.49778545	          1.56988371	          0.91582311	         -0.00927850	         34.71135982	         -0.88651226	         -8.18895444	        -11.51877291	          0.76684394	          0.20345209	        -12.68092039	         -1.80878090	         -3.93831312	        -13.01468850	          4.43157644	         40.78390043	         -5.83670482	          1.60170675	         -9.58074085	          0.17032683	          0.10667253	          0.00999999	          0.10603715	          0.34497066	          0.12716892	          0.13480903	          0.19484082	          0.10451115	          0.00999999	          0.00999999	          0.01182489	          0.00999999	          0.71888591	          0.21433421	          0.00999999	          0.00999999	          0.04466081	          0.00999999	          0.02324426	          0.21440608	          0.01182489	          0.71365140	          0.00999999	          0.00999999	          0.17489882	          0.29909422	          0.01955190	
          1.12778624	         -7.20068321	         -1.65876849	          6.48410739	          1.58857650	          0.91461698	         -0.00861355	         34.67492591	         -0.75484302	         -8.04486052	        -13.49850711	          0.33132267	          0.17342960	        -12.56000535	         -2.13219496	         -4.32850899	        -15.12894268	          2.81230102	         42.89983226	         -5.55704911	          2.01434174	         -9.90112620	          0.19027145	          0.09021011	          0.00999999	          0.16252548	          0.39678659	          0.11209510	          0.11400440	          0.29034407	          0.08838229	          0.00999999	          0.01781869	          0.00999999	          0.00999999	          0.75259590	          0.25356762	          0.00999999	          0.00999999	          0.03776845	          0.00999999	          0.01965705	          0.20181226	          0.00999999	          0.61277585	          0.00999999	          0.00999999	          0.14790727	          0.25293601	          0.01653452	
          1.13873562	         -7.16409415	         -1.73685453	          6.43958359	          1.60716996	          0.91384951	         -0.00782502	         34.64226114	         -0.61501174	         -7.96017381	        -15.55484652	          0.16032281	          0.12842498	        -12.12896991	         -2.49435251	         -4.72701081	        -17.78061342	          1.01808344	         44.75712641	         -5.30822355	          2.41839082	        -10.16308147	          0.18520562	          0.07628829	          0.00999999	          0.21173616	          0.38713650	          0.10197829	          0.09641048	          0.30726280	          0.07474255	          0.00999999	          0.09552669	          0.00999999	          0.00999999	          0.78479377	          0.29457447	          0.00999999	          0.00999999	          0.03193977	          0.03314134	          0.05315444	          0.19703338	          0.00999999	          0.51820820	          0.00999999	          0.00999999	          0.12508123	          0.21390124	          0.01398280	
